<svg width="301" height="301" viewBox="0 0 301 301" fill="none" xmlns="http://www.w3.org/2000/svg">
<path d="M6.91414e-06 401L17.3077 418.308M6.91414e-06 401L-17.3077 418.308M6.91414e-06 401L17.3076 383.692M6.91414e-06 401L-17.3077 383.692M17.3077 418.308H-17.3077M17.3077 418.308L17.3076 383.692M-17.3077 418.308V383.692M-100 501L-82.6923 518.308V483.692M-100 501L-82.6923 483.692M-100 501L-117.308 483.692L-82.6923 483.692M100 501L82.6923 483.692M100 501L82.6923 518.308V483.692M100 501L117.308 483.692L82.6923 483.692M-50 483.692L-32.6923 501L-50 518.308M-50 483.692L-82.6923 501L-50 518.308M-50 483.692L-25.4808 475.519L-17.3077 451M-50 483.692V451H-17.3077M-50 518.308L-25.4808 526.481L-17.3077 551M-50 518.308V551H-17.3077M-17.3077 551L6.91414e-06 533.692L17.3077 551L6.91414e-06 583.692L-17.3077 551ZM-17.3077 451L6.91414e-06 468.308L17.3077 451M-17.3077 451L6.91414e-06 418.308L17.3077 451M17.3077 451L25.4808 475.519L50 483.692M17.3077 451H50M50 483.692L32.6923 501L50 518.308L82.6923 501L50 483.692ZM50 483.692V451M50 451L49.9999 418.308M50 451L82.6922 451M25 526L16.8269 550.519H49.5192V517.827L25 526ZM25 526L16.3462 517.346M16.3462 517.346V484.654H-16.3461M16.3462 517.346H-16.3461V484.654M-16.3461 484.654L-25.9615 475.038M15.3846 484.654L25 475.038M-25.9615 526L-17.3077 517.346M99.9999 301L117.308 318.308M99.9999 301L82.6922 318.308M99.9999 301L117.308 283.692M99.9999 301L82.6923 283.692M117.308 318.308H82.6922M117.308 318.308L117.308 283.692M82.6922 318.308L82.6923 283.692M17.3076 383.692H-17.3077M200 401L182.692 383.692M200 401L182.692 418.308V383.692M200 401L217.308 383.692L182.692 383.692M49.9999 383.692L67.3076 401L49.9999 418.308M49.9999 383.692L17.3076 401L49.9999 418.308M49.9999 383.692L74.5191 375.519L82.6922 351M49.9999 383.692V351H82.6922M49.9999 418.308L74.5191 426.481L82.6922 451M82.6922 451L99.9999 433.692L117.308 451L99.9999 483.692L82.6922 451ZM82.6922 351L99.9999 368.308L117.308 351M82.6922 351L99.9999 318.308L117.308 351M117.308 351L125.481 375.519L150 383.692M117.308 351H150M150 383.692L132.692 401L150 418.308L182.692 401L150 383.692ZM150 383.692V351M150 351L150 318.308M150 351L182.692 351M125 426L116.827 450.519H149.519V417.827L125 426ZM125 426L116.346 417.346M116.346 417.346V384.654H83.6537M116.346 417.346H83.6537V384.654M83.6537 384.654L74.0383 375.038M115.385 384.654L125 375.038M74.0383 426L82.6922 417.346M200 201L217.308 218.308H182.692M200 201L182.692 218.308M200 201L182.692 183.692L182.692 218.308M117.308 283.692H82.6923M150 283.692L167.308 301L150 318.308M150 283.692L117.308 301L150 318.308M150 283.692L174.519 275.519L182.692 251M150 283.692V251H182.692M150 318.308L174.519 326.481L182.692 351M182.692 351L200 333.692L217.308 351L200 383.692L182.692 351ZM182.692 251L200 268.308L217.308 251M182.692 251L200 218.308L217.308 251M217.308 251L225.481 275.519L250 283.692M217.308 251H250V283.692M250 283.692L232.692 301L250 318.308L282.692 301L250 283.692ZM225 326L216.827 350.519H249.519V317.827L225 326ZM225 326L216.346 317.346M216.346 317.346V284.654H183.654M216.346 317.346H183.654V284.654M183.654 284.654L174.038 275.038M215.385 284.654L225 275.038M174.038 326L182.692 317.346M-100 301L-82.6923 318.308M-100 301L-117.308 318.308M-100 301L-82.6923 283.692M-100 301L-117.308 283.692M-82.6923 318.308H-117.308M-82.6923 318.308V283.692M-117.308 318.308L-117.308 283.692M-200 401L-182.692 418.308V383.692M-200 401L-182.692 383.692M-200 401L-217.308 383.692L-182.692 383.692M-150 383.692L-132.692 401L-150 418.308M-150 383.692L-182.692 401L-150 418.308M-150 383.692L-125.481 375.519L-117.308 351M-150 383.692V351H-117.308M-150 418.308L-125.481 426.481L-117.308 451M-150 418.308V451H-117.308M-117.308 451L-100 433.692L-82.6923 451L-100 483.692L-117.308 451ZM-117.308 351L-100 368.308L-82.6923 351M-117.308 351L-100 318.308L-82.6923 351M-82.6923 351L-74.5192 375.519L-50 383.692M-82.6923 351H-50M-50 383.692L-67.3077 401L-50 418.308L-17.3077 401L-50 383.692ZM-50 383.692V351M-50 351V318.308M-50 351L-17.3077 351M-75 426L-83.173 450.519H-50.4807V417.827L-75 426ZM-75 426L-83.6538 417.346M-83.6538 417.346V384.654H-116.346M-83.6538 417.346H-116.346V384.654M-116.346 384.654L-125.961 375.038M-84.6153 384.654L-75 375.038M-125.961 426L-117.308 417.346M6.91414e-06 201L17.3077 218.308M6.91414e-06 201L-17.3077 218.308M6.91414e-06 201L17.3076 183.692M6.91414e-06 201L-17.3077 183.692M17.3077 218.308H-17.3077M17.3077 218.308L17.3076 183.692M-17.3077 218.308V183.692M-82.6923 283.692H-117.308M-50 283.692L-32.6923 301L-50 318.308M-50 283.692L-82.6923 301L-50 318.308M-50 283.692L-25.4808 275.519L-17.3077 251M-50 283.692V251H-17.3077M-50 318.308L-25.4808 326.481L-17.3077 351M-17.3077 351L6.91414e-06 333.692L17.3077 351L6.91414e-06 383.692L-17.3077 351ZM-17.3077 251L6.91414e-06 268.308L17.3077 251M-17.3077 251L6.91414e-06 218.308L17.3077 251M17.3077 251L25.4808 275.519L50 283.692M17.3077 251H50M50 283.692L32.6923 301L50 318.308L82.6923 301L50 283.692ZM50 283.692V251M50 251L49.9999 218.308M50 251L82.6922 251M25 326L16.8269 350.519H49.5192V317.827L25 326ZM25 326L16.3462 317.346M16.3462 317.346V284.654H-16.3461M16.3462 317.346H-16.3461V284.654M-16.3461 284.654L-25.9615 275.038M15.3846 284.654L25 275.038M-25.9615 326L-17.3077 317.346M99.9999 101L117.308 118.308H82.6922M99.9999 101L82.6922 118.308M99.9999 101L82.6923 83.6924L82.6922 118.308M17.3076 183.692H-17.3077M49.9999 183.692L67.3076 201L49.9999 218.308M49.9999 183.692L17.3076 201L49.9999 218.308M49.9999 183.692L74.5191 175.519L82.6922 151M49.9999 183.692V151H82.6922M49.9999 218.308L74.5191 226.481L82.6922 251M82.6922 251L99.9999 233.692L117.308 251L99.9999 283.692L82.6922 251ZM82.6922 151L99.9999 168.308L117.308 151M82.6922 151L99.9999 118.308L117.308 151M117.308 151L125.481 175.519L150 183.692M117.308 151H150V183.692M150 183.692L132.692 201L150 218.308L182.692 201L150 183.692ZM125 226L116.827 250.519H149.519V217.827L125 226ZM125 226L116.346 217.346M116.346 217.346V184.654H83.6537M116.346 217.346H83.6537V184.654M83.6537 184.654L74.0383 175.038M115.385 184.654L125 175.038M74.0383 226L82.6922 217.346M-200 201L-182.692 218.308M-200 201L-217.308 218.308H-182.692M-200 201L-182.692 183.692L-182.692 218.308M-250 283.692L-232.692 301L-250 318.308M-250 283.692L-282.692 301L-250 318.308M-250 283.692L-225.481 275.519L-217.308 251M-250 283.692V251H-217.308M-250 318.308L-225.481 326.481L-217.308 351M-250 318.308V351H-217.308M-217.308 351L-200 333.692L-182.692 351L-200 383.692L-217.308 351ZM-217.308 251L-200 268.308L-182.692 251M-217.308 251L-200 218.308L-182.692 251M-182.692 251L-174.519 275.519L-150 283.692M-182.692 251H-150M-150 283.692L-167.308 301L-150 318.308L-117.308 301L-150 283.692ZM-150 283.692V251M-150 251L-150 218.308M-150 251L-117.308 251M-175 326L-183.173 350.519H-150.481V317.827L-175 326ZM-175 326L-183.654 317.346M-183.654 317.346V284.654H-216.346M-183.654 317.346H-216.346V284.654M-216.346 284.654L-225.962 275.038M-184.615 284.654L-175 275.038M-225.962 326L-217.308 317.346M-100 101L-82.6923 118.308M-100 101L-117.308 118.308H-82.6923M-100 101L-82.6923 83.6924V118.308M-150 183.692L-132.692 201L-150 218.308M-150 183.692L-182.692 201L-150 218.308M-150 183.692L-125.481 175.519L-117.308 151M-150 183.692V151H-117.308M-150 218.308L-125.481 226.481L-117.308 251M-117.308 251L-100 233.692L-82.6923 251L-100 283.692L-117.308 251ZM-117.308 151L-100 168.308L-82.6923 151M-117.308 151L-100 118.308L-82.6923 151M-82.6923 151L-74.5192 175.519L-50 183.692M-82.6923 151H-50M-50 183.692L-67.3077 201L-50 218.308L-17.3077 201L-50 183.692ZM-50 183.692V151M-50 151V118.308M-50 151L-17.3077 151M-75 226L-83.173 250.519H-50.4807V217.827L-75 226ZM-75 226L-83.6538 217.346M-83.6538 217.346V184.654H-116.346M-83.6538 217.346H-116.346V184.654M-116.346 184.654L-125.961 175.038M-84.6153 184.654L-75 175.038M-125.961 226L-117.308 217.346M-50 83.6924L-32.6923 101L-50 118.308M-50 83.6924L-82.6923 101L-50 118.308M-50 83.6924L-25.4808 75.5193L-17.3077 51M-50 83.6924V51H-17.3077M-50 118.308L-25.4808 126.481L-17.3077 151M-17.3077 151L6.91414e-06 133.692L17.3077 151L6.91414e-06 183.692L-17.3077 151ZM-17.3077 51L6.91414e-06 68.3077L17.3077 51M-17.3077 51L6.91414e-06 18.3077L17.3077 51M17.3077 51L25.4808 75.5193L50 83.6924M17.3077 51H50V83.6924M50 83.6924L32.6923 101L50 118.308L82.6923 101L50 83.6924ZM25 126L16.8269 150.519H49.5192V117.827L25 126ZM25 126L16.3462 117.346M16.3462 117.346V84.6539H-16.3461M16.3462 117.346H-16.3461V84.6539M-16.3461 84.6539L-25.9615 75.0385M15.3846 84.6539L25 75.0385M-25.9615 126L-17.3077 117.346M6.91414e-06 601L-17.3077 583.692H17.3077L6.91414e-06 601ZM300 301L282.692 283.692V318.308L300 301ZM-300 301L-282.692 318.308V283.692L-300 301ZM6.91414e-06 1L17.3077 18.3077H-17.3077L6.91414e-06 1Z" stroke="#5281B8"/>
</svg>
