<svg width="301" height="301" viewBox="0 0 301 301" fill="none" xmlns="http://www.w3.org/2000/svg">
<path d="M301 -99.9999L283.692 -117.308M301 -99.9999L318.308 -117.308M301 -99.9999L283.692 -82.6923M301 -99.9999L318.308 -82.6923M283.692 -117.308H318.308M283.692 -117.308L283.692 -82.6923M318.308 -117.308V-82.6923M401 -200L383.692 -217.308V-182.692M401 -200L383.692 -182.692M401 -200L418.308 -182.692L383.692 -182.692M201 -200L218.308 -182.692M201 -200L218.308 -217.308V-182.692M201 -200L183.692 -182.692L218.308 -182.692M351 -182.692L333.692 -200L351 -217.308M351 -182.692L383.692 -200L351 -217.308M351 -182.692L326.481 -174.519L318.308 -150M351 -182.692V-150H318.308M351 -217.308L326.481 -225.481L318.308 -250M351 -217.308V-250H318.308M318.308 -250L301 -232.692L283.692 -250L301 -282.692L318.308 -250ZM318.308 -150L301 -167.308L283.692 -150M318.308 -150L301 -117.308L283.692 -150M283.692 -150L275.519 -174.519L251 -182.692M283.692 -150H251M251 -182.692L268.308 -200L251 -217.308L218.308 -200L251 -182.692ZM251 -182.692V-150M251 -150L251 -117.308M251 -150L218.308 -150M276 -225L284.173 -249.519H251.481V-216.827L276 -225ZM276 -225L284.654 -216.346M284.654 -216.346V-183.654H317.346M284.654 -216.346H317.346V-183.654M317.346 -183.654L326.962 -174.038M285.615 -183.654L276 -174.038M326.962 -225L318.308 -216.346M201 9.07882e-05L183.692 -17.3076M201 9.07882e-05L218.308 -17.3076M201 9.07882e-05L183.692 17.3077M201 9.07882e-05L218.308 17.3077M183.692 -17.3076H218.308M183.692 -17.3076L183.692 17.3077M218.308 -17.3076L218.308 17.3077M283.692 -82.6923H318.308M101 -100L118.308 -82.6923M101 -100L118.308 -117.308V-82.6923M101 -100L83.6923 -82.6924L118.308 -82.6923M251 -82.6923L233.692 -100L251 -117.308M251 -82.6923L283.692 -100L251 -117.308M251 -82.6923L226.481 -74.5192L218.308 -49.9999M251 -82.6923V-49.9999H218.308M251 -117.308L226.481 -125.481L218.308 -150M218.308 -150L201 -132.692L183.692 -150L201 -182.692L218.308 -150ZM218.308 -49.9999L201 -67.3077L183.692 -49.9999M218.308 -49.9999L201 -17.3076L183.692 -49.9999M183.692 -49.9999L175.519 -74.5192L151 -82.6923M183.692 -49.9999H151M151 -82.6923L168.308 -100L151 -117.308L118.308 -100L151 -82.6923ZM151 -82.6923V-49.9999M151 -49.9999L151 -17.3077M151 -49.9999L118.308 -50.0001M176 -125L184.173 -149.519H151.481V-116.827L176 -125ZM176 -125L184.654 -116.346M184.654 -116.346V-83.6538H217.346M184.654 -116.346H217.346V-83.6538M217.346 -83.6538L226.962 -74.0384M185.615 -83.6538L176 -74.0384M226.962 -125L218.308 -116.346M101 100L83.6923 82.6924H118.308M101 100L118.308 82.6924M101 100L118.308 117.308L118.308 82.6924M183.692 17.3077H218.308M151 17.3077L133.692 1.41881e-07L151 -17.3077M151 17.3077L183.692 1.41881e-07L151 -17.3077M151 17.3077L126.481 25.4808L118.308 50M151 17.3077V50H118.308M151 -17.3077L126.481 -25.4808L118.308 -50.0001M118.308 -50.0001L101 -32.6923L83.6923 -50.0001L101 -82.6924L118.308 -50.0001ZM118.308 50L101 32.6923L83.6923 50M118.308 50L101 82.6924L83.6923 50M83.6923 50L75.5192 25.4808L51 17.3077M83.6923 50H51V17.3077M51 17.3077L68.3077 1.41881e-07L51 -17.3077L18.3077 1.41881e-07L51 17.3077ZM75.9999 -25L84.173 -49.5193H51.4808V-16.827L75.9999 -25ZM75.9999 -25L84.6538 -16.3462M84.6538 -16.3462V16.3462H117.346M84.6538 -16.3462H117.346V16.3462M117.346 16.3462L126.962 25.9615M85.6153 16.3462L75.9999 25.9615M126.962 -25L118.308 -16.3462M401 9.07882e-05L383.692 -17.3076M401 9.07882e-05L418.308 -17.3076M401 9.07882e-05L383.692 17.3077M401 9.07882e-05L418.308 17.3077M383.692 -17.3076H418.308M383.692 -17.3076V17.3077M418.308 -17.3076L418.308 17.3077M501 -100L483.692 -117.308V-82.6923M501 -100L483.692 -82.6923M501 -100L518.308 -82.6924L483.692 -82.6923M451 -82.6923L433.692 -100L451 -117.308M451 -82.6923L483.692 -100L451 -117.308M451 -82.6923L426.481 -74.5192L418.308 -49.9999M451 -82.6923V-49.9999H418.308M451 -117.308L426.481 -125.481L418.308 -150M451 -117.308V-150H418.308M418.308 -150L401 -132.692L383.692 -150L401 -182.692L418.308 -150ZM418.308 -49.9999L401 -67.3077L383.692 -49.9999M418.308 -49.9999L401 -17.3076L383.692 -49.9999M383.692 -49.9999L375.519 -74.5192L351 -82.6923M383.692 -49.9999H351M351 -82.6923L368.308 -100L351 -117.308L318.308 -100L351 -82.6923ZM351 -82.6923V-49.9999M351 -49.9999V-17.3077M351 -49.9999L318.308 -50.0001M376 -125L384.173 -149.519H351.481V-116.827L376 -125ZM376 -125L384.654 -116.346M384.654 -116.346V-83.6538H417.346M384.654 -116.346H417.346V-83.6538M417.346 -83.6538L426.961 -74.0384M385.615 -83.6538L376 -74.0384M426.961 -125L418.308 -116.346M301 100L283.692 82.6924M301 100L318.308 82.6924M301 100L283.692 117.308M301 100L318.308 117.308M283.692 82.6924H318.308M283.692 82.6924L283.692 117.308M318.308 82.6924V117.308M383.692 17.3077H418.308M351 17.3077L333.692 1.41881e-07L351 -17.3077M351 17.3077L383.692 1.41881e-07L351 -17.3077M351 17.3077L326.481 25.4808L318.308 50M351 17.3077V50H318.308M351 -17.3077L326.481 -25.4808L318.308 -50.0001M318.308 -50.0001L301 -32.6923L283.692 -50.0001L301 -82.6924L318.308 -50.0001ZM318.308 50L301 32.6923L283.692 50M318.308 50L301 82.6924L283.692 50M283.692 50L275.519 25.4808L251 17.3077M283.692 50H251M251 17.3077L268.308 1.41881e-07L251 -17.3077L218.308 1.41881e-07L251 17.3077ZM251 17.3077V50M251 50L251 82.6922M251 50L218.308 49.9999M276 -25L284.173 -49.5193H251.481V-16.827L276 -25ZM276 -25L284.654 -16.3462M284.654 -16.3462V16.3462H317.346M284.654 -16.3462H317.346V16.3462M317.346 16.3462L326.962 25.9615M285.615 16.3462L276 25.9615M326.962 -25L318.308 -16.3462M201 200L183.692 182.692H218.308M201 200L218.308 182.692M201 200L218.308 217.308L218.308 182.692M283.692 117.308H318.308M251 117.308L233.692 100L251 82.6922M251 117.308L283.692 100L251 82.6922M251 117.308L226.481 125.481L218.308 150M251 117.308V150H218.308M251 82.6922L226.481 74.5192L218.308 49.9999M218.308 49.9999L201 67.3076L183.692 49.9999L201 17.3076L218.308 49.9999ZM218.308 150L201 132.692L183.692 150M218.308 150L201 182.692L183.692 150M183.692 150L175.519 125.481L151 117.308M183.692 150H151V117.308M151 117.308L168.308 100L151 82.6922L118.308 100L151 117.308ZM176 74.9999L184.173 50.4807H151.481V83.173L176 74.9999ZM176 74.9999L184.654 83.6538M184.654 83.6538V116.346H217.346M184.654 83.6538H217.346V116.346M217.346 116.346L226.962 125.962M185.615 116.346L176 125.962M226.962 74.9999L218.308 83.6538M501 100L483.692 82.6924M501 100L518.308 82.6924H483.692M501 100L483.692 117.308L483.692 82.6924M551 17.3077L533.692 1.41881e-07L551 -17.3077M551 17.3077L583.692 1.41881e-07L551 -17.3077M551 17.3077L526.481 25.4808L518.308 50M551 17.3077V50H518.308M551 -17.3077L526.481 -25.4808L518.308 -50.0001M551 -17.3077V-50.0001H518.308M518.308 -50.0001L501 -32.6923L483.692 -50.0001L501 -82.6924L518.308 -50.0001ZM518.308 50L501 32.6923L483.692 50M518.308 50L501 82.6924L483.692 50M483.692 50L475.519 25.4808L451 17.3077M483.692 50H451M451 17.3077L468.308 1.41881e-07L451 -17.3077L418.308 1.41881e-07L451 17.3077ZM451 17.3077V50M451 50L451 82.6922M451 50L418.308 49.9999M476 -25L484.173 -49.5193H451.481V-16.827L476 -25ZM476 -25L484.654 -16.3462M484.654 -16.3462V16.3462H517.346M484.654 -16.3462H517.346V16.3462M517.346 16.3462L526.962 25.9615M485.615 16.3462L476 25.9615M526.962 -25L518.308 -16.3462M401 200L383.692 182.692M401 200L418.308 182.692H383.692M401 200L383.692 217.308V182.692M451 117.308L433.692 100L451 82.6922M451 117.308L483.692 100L451 82.6922M451 117.308L426.481 125.481L418.308 150M451 117.308V150H418.308M451 82.6922L426.481 74.5192L418.308 49.9999M418.308 49.9999L401 67.3076L383.692 49.9999L401 17.3076L418.308 49.9999ZM418.308 150L401 132.692L383.692 150M418.308 150L401 182.692L383.692 150M383.692 150L375.519 125.481L351 117.308M383.692 150H351M351 117.308L368.308 100L351 82.6922L318.308 100L351 117.308ZM351 117.308V150M351 150V182.692M351 150L318.308 150M376 74.9999L384.173 50.4807H351.481V83.173L376 74.9999ZM376 74.9999L384.654 83.6538M384.654 83.6538V116.346H417.346M384.654 83.6538H417.346V116.346M417.346 116.346L426.961 125.962M385.615 116.346L376 125.962M426.961 74.9999L418.308 83.6538M351 217.308L333.692 200L351 182.692M351 217.308L383.692 200L351 182.692M351 217.308L326.481 225.481L318.308 250M351 217.308V250H318.308M351 182.692L326.481 174.519L318.308 150M318.308 150L301 167.308L283.692 150L301 117.308L318.308 150ZM318.308 250L301 232.692L283.692 250M318.308 250L301 282.692L283.692 250M283.692 250L275.519 225.481L251 217.308M283.692 250H251V217.308M251 217.308L268.308 200L251 182.692L218.308 200L251 217.308ZM276 175L284.173 150.481H251.481V183.173L276 175ZM276 175L284.654 183.654M284.654 183.654V216.346H317.346M284.654 183.654H317.346V216.346M317.346 216.346L326.962 225.961M285.615 216.346L276 225.961M326.962 175L318.308 183.654M301 -300L318.308 -282.692H283.692L301 -300ZM0.999986 1.41881e-07L18.3077 17.3077V-17.3077L0.999986 1.41881e-07ZM601 1.41881e-07L583.692 -17.3077V17.3077L601 1.41881e-07ZM301 300L283.692 282.692H318.308L301 300Z" stroke="#5281B8"/>
</svg>
